<svg width="6110" height="1613" viewBox="0 0 6110 1613" fill="none" xmlns="http://www.w3.org/2000/svg">
<circle cx="725" cy="862" r="725" fill="#475BB2"/>
<path d="M724.627 538.883C586.695 538.883 461.898 644.631 461.898 808.18C461.898 912.614 542.359 1035.44 702.952 1176.99C715.432 1187.82 734.151 1187.82 746.631 1176.99C906.895 1035.44 987.356 912.614 987.356 808.18C987.356 644.631 862.56 538.883 724.627 538.883ZM724.627 867.294C688.502 867.294 658.945 837.737 658.945 801.612C658.945 765.486 688.502 735.929 724.627 735.929C760.752 735.929 790.309 765.486 790.309 801.612C790.309 837.737 760.752 867.294 724.627 867.294Z" fill="white"/>
<path d="M1840.42 862V320.839H1913.55L1945.12 425.531V862H1840.42ZM2214.54 862L1893.54 446.315L1913.55 320.839L2234.56 736.525L2214.54 862ZM2214.54 862L2184.52 760.388V320.839H2289.98V862H2214.54ZM2566.77 869.698C2527.76 869.698 2493.12 861.487 2462.85 845.065C2432.57 828.129 2408.45 805.036 2390.49 775.784C2373.04 746.532 2364.31 713.174 2364.31 675.711C2364.31 638.762 2372.78 605.917 2389.72 577.179C2407.16 547.927 2430.77 524.833 2460.54 507.898C2490.3 490.449 2523.4 481.725 2559.84 481.725C2595.76 481.725 2627.32 489.936 2654.52 506.358C2682.24 522.267 2703.79 544.334 2719.19 572.56C2735.09 600.272 2743.05 631.834 2743.05 667.244C2743.05 673.915 2742.54 680.843 2741.51 688.028C2741 694.7 2739.71 702.397 2737.66 711.122L2425.13 711.891V636.452L2690.7 635.683L2649.9 667.244C2648.88 645.177 2644.77 626.702 2637.59 611.819C2630.92 596.937 2620.91 585.646 2607.57 577.948C2594.74 569.737 2578.83 565.632 2559.84 565.632C2539.82 565.632 2522.38 570.251 2507.49 579.488C2492.61 588.212 2481.06 600.785 2472.85 617.208C2465.16 633.117 2461.31 652.105 2461.31 674.172C2461.31 696.752 2465.41 716.51 2473.62 733.446C2482.35 749.868 2494.66 762.697 2510.57 771.935C2526.48 780.659 2544.96 785.021 2566 785.021C2584.99 785.021 2602.18 781.942 2617.57 775.784C2632.97 769.112 2646.31 759.362 2657.6 746.532L2716.88 805.806C2698.91 826.846 2676.85 842.755 2650.67 853.532C2625.01 864.309 2597.05 869.698 2566.77 869.698ZM2960.91 869.698C2927.04 869.698 2896.5 861.23 2869.31 844.295C2842.11 827.36 2820.81 804.266 2805.41 775.014C2790.02 745.762 2782.32 712.918 2782.32 676.481C2782.32 639.531 2790.02 606.431 2805.41 577.179C2820.81 547.927 2842.11 524.833 2869.31 507.898C2896.5 490.962 2927.04 482.495 2960.91 482.495C2987.6 482.495 3011.46 487.883 3032.5 498.66C3053.54 509.437 3070.22 524.577 3082.54 544.078C3095.37 563.066 3102.29 584.62 3103.32 608.74V742.683C3102.29 767.316 3095.37 789.127 3082.54 808.115C3070.22 827.103 3053.54 842.242 3032.5 853.532C3011.46 864.309 2987.6 869.698 2960.91 869.698ZM2979.39 776.554C3007.61 776.554 3030.45 767.316 3047.9 748.841C3065.34 729.853 3074.07 705.477 3074.07 675.711C3074.07 656.21 3069.96 639.018 3061.75 624.136C3054.05 608.74 3043.02 596.937 3028.65 588.725C3014.8 580.001 2998.37 575.639 2979.39 575.639C2960.91 575.639 2944.49 580.001 2930.12 588.725C2916.26 596.937 2905.23 608.74 2897.02 624.136C2889.32 639.018 2885.47 656.21 2885.47 675.711C2885.47 695.726 2889.32 713.431 2897.02 728.827C2905.23 743.709 2916.26 755.513 2930.12 764.237C2944.49 772.448 2960.91 776.554 2979.39 776.554ZM3068.68 862V761.928L3084.85 671.093L3068.68 581.797V490.193H3168.75V862H3068.68ZM3257.96 862V490.193H3358.81V862H3257.96ZM3358.81 656.467L3319.55 630.294C3324.17 584.62 3337.51 548.697 3359.58 522.524C3381.64 495.838 3413.46 482.495 3455.03 482.495C3472.99 482.495 3489.16 485.574 3503.53 491.732C3517.9 497.377 3530.98 506.871 3542.79 520.214L3479.66 592.574C3474.02 586.416 3467.09 581.797 3458.88 578.718C3451.18 575.639 3442.2 574.1 3431.94 574.1C3410.38 574.1 3392.68 581.028 3378.82 594.884C3365.48 608.227 3358.81 628.754 3358.81 656.467ZM3824.46 862V768.856H3962.25C3997.14 768.856 4027.68 761.671 4053.85 747.302C4080.02 732.419 4100.3 711.635 4114.67 684.949C4129.55 658.263 4136.99 626.702 4136.99 590.265C4136.99 554.855 4129.55 524.063 4114.67 497.891C4099.78 471.205 4079.25 450.677 4053.08 436.308C4026.91 421.425 3996.63 413.984 3962.25 413.984H3822.15V320.839H3963.79C4003.82 320.839 4040.77 327.511 4074.64 340.854C4109.02 354.197 4138.79 373.185 4163.93 397.818C4189.59 421.938 4209.35 450.42 4223.21 483.265C4237.57 516.109 4244.76 552.032 4244.76 591.035C4244.76 630.037 4237.57 666.217 4223.21 699.575C4209.35 732.419 4189.85 761.158 4164.7 785.791C4139.55 809.911 4109.79 828.643 4075.41 841.986C4041.54 855.329 4004.84 862 3965.33 862H3824.46ZM3752.87 862V320.839H3857.56V862H3752.87ZM4317.17 862V490.193H4418.02V862H4317.17ZM4418.02 656.467L4378.76 630.294C4383.38 584.62 4396.72 548.697 4418.79 522.524C4440.85 495.838 4472.67 482.495 4514.24 482.495C4532.2 482.495 4548.37 485.574 4562.74 491.732C4577.11 497.377 4590.19 506.871 4601.99 520.214L4538.87 592.574C4533.23 586.416 4526.3 581.797 4518.09 578.718C4510.39 575.639 4501.41 574.1 4491.15 574.1C4469.59 574.1 4451.89 581.028 4438.03 594.884C4424.69 608.227 4418.02 628.754 4418.02 656.467ZM4660.09 869.698C4641.61 869.698 4626.48 863.54 4614.67 851.223C4602.87 838.906 4596.97 823.767 4596.97 805.806C4596.97 787.844 4602.87 772.705 4614.67 760.388C4626.48 748.071 4641.61 741.913 4660.09 741.913C4678.05 741.913 4692.93 748.071 4704.74 760.388C4716.54 772.705 4722.44 787.844 4722.44 805.806C4722.44 823.767 4716.54 838.906 4704.74 851.223C4692.93 863.54 4678.05 869.698 4660.09 869.698Z" fill="#013E70"/>
<path d="M1840.28 1365V1324.46H1900.24C1915.43 1324.46 1928.72 1321.34 1940.11 1315.08C1951.5 1308.61 1960.32 1299.56 1966.57 1287.95C1973.05 1276.34 1976.29 1262.6 1976.29 1246.74C1976.29 1231.33 1973.05 1217.93 1966.57 1206.54C1960.09 1194.93 1951.16 1186 1939.77 1179.74C1928.38 1173.27 1915.2 1170.03 1900.24 1170.03H1839.27V1129.49H1900.91C1918.33 1129.49 1934.41 1132.4 1949.15 1138.2C1964.11 1144.01 1977.07 1152.27 1988.01 1162.99C1999.18 1173.49 2007.78 1185.89 2013.81 1200.18C2020.06 1214.47 2023.19 1230.11 2023.19 1247.08C2023.19 1264.05 2020.06 1279.8 2013.81 1294.31C2007.78 1308.61 1999.29 1321.11 1988.35 1331.83C1977.4 1342.33 1964.45 1350.48 1949.49 1356.29C1934.75 1362.1 1918.78 1365 1901.58 1365H1840.28ZM1809.12 1365V1129.49H1854.68V1365H1809.12ZM2122.37 1368.35C2107.63 1368.35 2094.34 1364.66 2082.5 1357.29C2070.67 1349.92 2061.4 1339.87 2054.7 1327.14C2048 1314.41 2044.65 1300.12 2044.65 1284.26C2044.65 1268.18 2048 1253.78 2054.7 1241.05C2061.4 1228.32 2070.67 1218.27 2082.5 1210.9C2094.34 1203.53 2107.63 1199.84 2122.37 1199.84C2133.98 1199.84 2144.37 1202.19 2153.52 1206.88C2162.68 1211.57 2169.94 1218.16 2175.3 1226.64C2180.88 1234.91 2183.9 1244.29 2184.34 1254.78V1313.07C2183.9 1323.79 2180.88 1333.29 2175.3 1341.55C2169.94 1349.81 2162.68 1356.4 2153.52 1361.31C2144.37 1366.01 2133.98 1368.35 2122.37 1368.35ZM2130.41 1327.81C2142.69 1327.81 2152.63 1323.79 2160.22 1315.76C2167.82 1307.49 2171.61 1296.88 2171.61 1283.93C2171.61 1275.44 2169.83 1267.96 2166.25 1261.48C2162.9 1254.78 2158.1 1249.65 2151.85 1246.07C2145.82 1242.28 2138.67 1240.38 2130.41 1240.38C2122.37 1240.38 2115.22 1242.28 2108.97 1246.07C2102.94 1249.65 2098.14 1254.78 2094.56 1261.48C2091.21 1267.96 2089.54 1275.44 2089.54 1283.93C2089.54 1292.64 2091.21 1300.34 2094.56 1307.04C2098.14 1313.52 2102.94 1318.66 2108.97 1322.45C2115.22 1326.03 2122.37 1327.81 2130.41 1327.81ZM2169.27 1365V1321.45L2176.3 1281.92L2169.27 1243.06V1203.19H2212.82V1365H2169.27ZM2307.25 1368.69C2298.1 1368.69 2289.05 1367.46 2280.12 1365C2271.41 1362.54 2263.37 1359.19 2256 1354.95C2248.63 1350.48 2242.26 1345.12 2236.9 1338.87L2263.03 1312.4C2268.62 1318.66 2275.09 1323.35 2282.46 1326.47C2289.83 1329.6 2297.98 1331.16 2306.92 1331.16C2314.06 1331.16 2319.42 1330.16 2323 1328.15C2326.79 1326.14 2328.69 1323.12 2328.69 1319.1C2328.69 1314.64 2326.68 1311.18 2322.66 1308.72C2318.87 1306.26 2313.84 1304.25 2307.59 1302.69C2301.33 1300.9 2294.75 1299 2287.82 1296.99C2281.12 1294.76 2274.65 1291.97 2268.39 1288.62C2262.14 1285.05 2257 1280.24 2252.98 1274.21C2249.19 1267.96 2247.29 1259.92 2247.29 1250.09C2247.29 1239.82 2249.74 1230.89 2254.66 1223.29C2259.79 1215.7 2267.05 1209.78 2276.43 1205.54C2285.81 1201.3 2296.87 1199.17 2309.6 1199.17C2323 1199.17 2335.06 1201.52 2345.78 1206.21C2356.72 1210.9 2365.77 1217.93 2372.91 1227.31L2346.45 1253.78C2341.53 1247.75 2335.95 1243.39 2329.7 1240.71C2323.67 1238.03 2317.08 1236.69 2309.93 1236.69C2303.46 1236.69 2298.43 1237.7 2294.86 1239.71C2291.51 1241.72 2289.83 1244.51 2289.83 1248.08C2289.83 1252.1 2291.73 1255.23 2295.53 1257.46C2299.55 1259.7 2304.68 1261.71 2310.94 1263.49C2317.19 1265.06 2323.67 1266.96 2330.37 1269.19C2337.29 1271.2 2343.77 1274.1 2349.8 1277.9C2356.05 1281.7 2361.08 1286.72 2364.87 1292.97C2368.89 1299.23 2370.9 1307.27 2370.9 1317.09C2370.9 1332.95 2365.21 1345.57 2353.82 1354.95C2342.43 1364.11 2326.91 1368.69 2307.25 1368.69ZM2509.37 1365V1272.2C2509.37 1262.6 2506.35 1254.78 2500.32 1248.75C2494.29 1242.72 2486.48 1239.71 2476.87 1239.71C2470.62 1239.71 2465.04 1241.05 2460.12 1243.73C2455.21 1246.41 2451.3 1250.21 2448.4 1255.12C2445.72 1260.03 2444.38 1265.73 2444.38 1272.2L2427.29 1263.49C2427.29 1250.76 2429.97 1239.71 2435.33 1230.33C2440.69 1220.73 2448.06 1213.24 2457.44 1207.88C2467.05 1202.52 2477.99 1199.84 2490.27 1199.84C2502.56 1199.84 2513.39 1202.52 2522.77 1207.88C2532.37 1213.24 2539.85 1220.61 2545.21 1229.99C2550.57 1239.37 2553.25 1250.21 2553.25 1262.49V1365H2509.37ZM2400.49 1365V1122.79H2444.38V1365H2400.49ZM2678.38 1368.35C2666.77 1368.35 2656.27 1365.89 2646.89 1360.98C2637.51 1356.07 2630.03 1349.37 2624.45 1340.88C2618.87 1332.39 2615.85 1322.9 2615.4 1312.4V1254.78C2615.85 1244.29 2618.87 1234.91 2624.45 1226.64C2630.26 1218.16 2637.85 1211.57 2647.23 1206.88C2656.61 1202.19 2666.99 1199.84 2678.38 1199.84C2693.35 1199.84 2706.75 1203.53 2718.58 1210.9C2730.42 1218.27 2739.69 1228.32 2746.39 1241.05C2753.31 1253.78 2756.77 1268.18 2756.77 1284.26C2756.77 1300.12 2753.31 1314.41 2746.39 1327.14C2739.69 1339.87 2730.42 1349.92 2718.58 1357.29C2706.75 1364.66 2693.35 1368.35 2678.38 1368.35ZM2588.6 1365V1122.79H2632.49V1243.06L2625.12 1281.92L2632.15 1321.45V1365H2588.6ZM2671.01 1327.81C2679.05 1327.81 2686.09 1326.03 2692.12 1322.45C2698.37 1318.66 2703.17 1313.52 2706.52 1307.04C2710.1 1300.34 2711.88 1292.64 2711.88 1283.93C2711.88 1275.44 2710.1 1267.96 2706.52 1261.48C2703.17 1254.78 2698.37 1249.65 2692.12 1246.07C2685.87 1242.28 2678.72 1240.38 2670.68 1240.38C2662.64 1240.38 2655.49 1242.28 2649.24 1246.07C2643.21 1249.65 2638.41 1254.78 2634.83 1261.48C2631.48 1267.96 2629.81 1275.44 2629.81 1283.93C2629.81 1292.64 2631.48 1300.34 2634.83 1307.04C2638.41 1313.52 2643.32 1318.66 2649.57 1322.45C2655.83 1326.03 2662.97 1327.81 2671.01 1327.81ZM2861.59 1368.35C2845.29 1368.35 2830.55 1364.66 2817.37 1357.29C2804.42 1349.7 2794.03 1339.54 2786.22 1326.81C2778.62 1313.86 2774.83 1299.45 2774.83 1283.59C2774.83 1267.74 2778.62 1253.56 2786.22 1241.05C2793.81 1228.32 2804.2 1218.27 2817.37 1210.9C2830.55 1203.31 2845.18 1199.51 2861.26 1199.51C2877.78 1199.51 2892.52 1203.31 2905.48 1210.9C2918.65 1218.27 2929.04 1228.32 2936.63 1241.05C2944.23 1253.56 2948.02 1267.74 2948.02 1283.59C2948.02 1299.45 2944.23 1313.86 2936.63 1326.81C2929.04 1339.54 2918.65 1349.7 2905.48 1357.29C2892.52 1364.66 2877.9 1368.35 2861.59 1368.35ZM2861.26 1327.48C2869.52 1327.48 2876.78 1325.69 2883.03 1322.12C2889.51 1318.32 2894.42 1313.19 2897.77 1306.71C2901.35 1300.01 2903.13 1292.42 2903.13 1283.93C2903.13 1275.44 2901.35 1267.96 2897.77 1261.48C2894.2 1255.01 2889.29 1249.98 2883.03 1246.41C2876.78 1242.61 2869.52 1240.71 2861.26 1240.71C2853.22 1240.71 2846.07 1242.61 2839.82 1246.41C2833.56 1249.98 2828.65 1255.01 2825.08 1261.48C2821.5 1267.96 2819.72 1275.44 2819.72 1283.93C2819.72 1292.42 2821.5 1300.01 2825.08 1306.71C2828.65 1313.19 2833.56 1318.32 2839.82 1322.12C2846.07 1325.69 2853.22 1327.48 2861.26 1327.48ZM3043.95 1368.35C3029.21 1368.35 3015.92 1364.66 3004.08 1357.29C2992.24 1349.92 2982.98 1339.87 2976.28 1327.14C2969.58 1314.41 2966.23 1300.12 2966.23 1284.26C2966.23 1268.18 2969.58 1253.78 2976.28 1241.05C2982.98 1228.32 2992.24 1218.27 3004.08 1210.9C3015.92 1203.53 3029.21 1199.84 3043.95 1199.84C3055.56 1199.84 3065.94 1202.19 3075.1 1206.88C3084.26 1211.57 3091.52 1218.16 3096.88 1226.64C3102.46 1234.91 3105.47 1244.29 3105.92 1254.78V1313.07C3105.47 1323.79 3102.46 1333.29 3096.88 1341.55C3091.52 1349.81 3084.26 1356.4 3075.1 1361.31C3065.94 1366.01 3055.56 1368.35 3043.95 1368.35ZM3051.99 1327.81C3064.27 1327.81 3074.21 1323.79 3081.8 1315.76C3089.39 1307.49 3093.19 1296.88 3093.19 1283.93C3093.19 1275.44 3091.4 1267.96 3087.83 1261.48C3084.48 1254.78 3079.68 1249.65 3073.43 1246.07C3067.4 1242.28 3060.25 1240.38 3051.99 1240.38C3043.95 1240.38 3036.8 1242.28 3030.55 1246.07C3024.52 1249.65 3019.71 1254.78 3016.14 1261.48C3012.79 1267.96 3011.12 1275.44 3011.12 1283.93C3011.12 1292.64 3012.79 1300.34 3016.14 1307.04C3019.71 1313.52 3024.52 1318.66 3030.55 1322.45C3036.8 1326.03 3043.95 1327.81 3051.99 1327.81ZM3090.85 1365V1321.45L3097.88 1281.92L3090.85 1243.06V1203.19H3134.4V1365H3090.85ZM3173.22 1365V1203.19H3217.1V1365H3173.22ZM3217.1 1275.55L3200.02 1264.16C3202.03 1244.29 3207.84 1228.65 3217.44 1217.26C3227.04 1205.65 3240.89 1199.84 3258.98 1199.84C3266.8 1199.84 3273.83 1201.18 3280.08 1203.86C3286.34 1206.32 3292.03 1210.45 3297.17 1216.26L3269.7 1247.75C3267.24 1245.07 3264.23 1243.06 3260.65 1241.72C3257.3 1240.38 3253.4 1239.71 3248.93 1239.71C3239.55 1239.71 3231.84 1242.72 3225.81 1248.75C3220.01 1254.56 3217.1 1263.49 3217.1 1275.55ZM3376.34 1368.35C3361.38 1368.35 3347.98 1364.66 3336.14 1357.29C3324.31 1349.92 3314.93 1339.87 3308 1327.14C3301.3 1314.41 3297.95 1300.12 3297.95 1284.26C3297.95 1268.18 3301.3 1253.78 3308 1241.05C3314.93 1228.32 3324.2 1218.27 3335.81 1210.9C3347.65 1203.53 3361.16 1199.84 3376.34 1199.84C3387.96 1199.84 3398.34 1202.19 3407.5 1206.88C3416.88 1211.57 3424.36 1218.16 3429.94 1226.64C3435.75 1234.91 3438.88 1244.29 3439.32 1254.78V1312.4C3438.88 1322.9 3435.86 1332.39 3430.28 1340.88C3424.7 1349.37 3417.21 1356.07 3407.83 1360.98C3398.45 1365.89 3387.96 1368.35 3376.34 1368.35ZM3383.71 1327.81C3391.98 1327.81 3399.12 1326.03 3405.15 1322.45C3411.41 1318.66 3416.21 1313.52 3419.56 1307.04C3423.13 1300.34 3424.92 1292.64 3424.92 1283.93C3424.92 1275.44 3423.13 1267.96 3419.56 1261.48C3416.21 1254.78 3411.41 1249.65 3405.15 1246.07C3399.12 1242.28 3392.09 1240.38 3384.05 1240.38C3375.79 1240.38 3368.53 1242.28 3362.27 1246.07C3356.24 1249.87 3351.44 1255.01 3347.87 1261.48C3344.52 1267.96 3342.84 1275.44 3342.84 1283.93C3342.84 1292.64 3344.52 1300.34 3347.87 1307.04C3351.44 1313.52 3356.36 1318.66 3362.61 1322.45C3368.86 1326.03 3375.9 1327.81 3383.71 1327.81ZM3466.12 1365H3422.57V1321.45L3429.61 1281.92L3422.24 1243.06V1122.79H3466.12V1365ZM3608.57 1277.56V1240.38H3663.17C3670.32 1240.38 3676.8 1238.93 3682.6 1236.02C3688.41 1233.12 3692.99 1228.99 3696.34 1223.63C3699.69 1218.05 3701.36 1211.35 3701.36 1203.53C3701.36 1195.94 3699.69 1189.35 3696.34 1183.76C3692.99 1178.18 3688.41 1173.94 3682.6 1171.03C3676.8 1168.13 3670.32 1166.68 3663.17 1166.68H3608.57V1129.49H3667.86C3682.83 1129.49 3696.23 1132.51 3708.06 1138.54C3720.12 1144.57 3729.61 1153.17 3736.54 1164.33C3743.46 1175.28 3746.92 1188.34 3746.92 1203.53C3746.92 1218.72 3743.46 1231.89 3736.54 1243.06C3729.61 1254 3720.12 1262.49 3708.06 1268.52C3696.23 1274.55 3682.83 1277.56 3667.86 1277.56H3608.57ZM3575.07 1365V1129.49H3620.63V1365H3575.07ZM3836.95 1368.35C3822.21 1368.35 3808.93 1364.66 3797.09 1357.29C3785.25 1349.92 3775.98 1339.87 3769.28 1327.14C3762.58 1314.41 3759.23 1300.12 3759.23 1284.26C3759.23 1268.18 3762.58 1253.78 3769.28 1241.05C3775.98 1228.32 3785.25 1218.27 3797.09 1210.9C3808.93 1203.53 3822.21 1199.84 3836.95 1199.84C3848.57 1199.84 3858.95 1202.19 3868.11 1206.88C3877.27 1211.57 3884.52 1218.16 3889.88 1226.64C3895.47 1234.91 3898.48 1244.29 3898.93 1254.78V1313.07C3898.48 1323.79 3895.47 1333.29 3889.88 1341.55C3884.52 1349.81 3877.27 1356.4 3868.11 1361.31C3858.95 1366.01 3848.57 1368.35 3836.95 1368.35ZM3844.99 1327.81C3857.28 1327.81 3867.22 1323.79 3874.81 1315.76C3882.4 1307.49 3886.2 1296.88 3886.2 1283.93C3886.2 1275.44 3884.41 1267.96 3880.84 1261.48C3877.49 1254.78 3872.69 1249.65 3866.43 1246.07C3860.4 1242.28 3853.26 1240.38 3844.99 1240.38C3836.95 1240.38 3829.81 1242.28 3823.55 1246.07C3817.52 1249.65 3812.72 1254.78 3809.15 1261.48C3805.8 1267.96 3804.12 1275.44 3804.12 1283.93C3804.12 1292.64 3805.8 1300.34 3809.15 1307.04C3812.72 1313.52 3817.52 1318.66 3823.55 1322.45C3829.81 1326.03 3836.95 1327.81 3844.99 1327.81ZM3883.85 1365V1321.45L3890.89 1281.92L3883.85 1243.06V1203.19H3927.4V1365H3883.85ZM4075.1 1365V1272.2C4075.1 1262.6 4072.09 1254.78 4066.06 1248.75C4060.03 1242.72 4052.21 1239.71 4042.61 1239.71C4036.35 1239.71 4030.77 1241.05 4025.86 1243.73C4020.94 1246.41 4017.04 1250.21 4014.13 1255.12C4011.45 1260.03 4010.11 1265.73 4010.11 1272.2L3993.03 1263.49C3993.03 1250.76 3995.71 1239.71 4001.07 1230.33C4006.65 1220.73 4014.24 1213.24 4023.85 1207.88C4033.67 1202.52 4044.73 1199.84 4057.01 1199.84C4068.85 1199.84 4079.46 1202.86 4088.84 1208.89C4098.22 1214.7 4105.59 1222.4 4110.95 1232C4116.31 1241.38 4118.99 1251.55 4118.99 1262.49V1365H4075.1ZM3966.23 1365V1203.19H4010.11V1365H3966.23ZM4231.72 1368.35C4214.75 1368.35 4199.67 1364.78 4186.5 1357.63C4173.32 1350.26 4162.82 1340.21 4155.01 1327.48C4147.41 1314.75 4143.62 1300.23 4143.62 1283.93C4143.62 1267.85 4147.3 1253.56 4154.67 1241.05C4162.27 1228.32 4172.54 1218.27 4185.49 1210.9C4198.45 1203.31 4212.85 1199.51 4228.71 1199.51C4244.34 1199.51 4258.08 1203.08 4269.91 1210.23C4281.97 1217.15 4291.35 1226.76 4298.05 1239.04C4304.98 1251.1 4308.44 1264.83 4308.44 1280.24C4308.44 1283.15 4308.21 1286.16 4307.77 1289.29C4307.54 1292.19 4306.99 1295.54 4306.09 1299.34L4170.08 1299.67V1266.84L4285.66 1266.51L4267.9 1280.24C4267.46 1270.64 4265.67 1262.6 4262.54 1256.12C4259.64 1249.65 4255.28 1244.73 4249.48 1241.38C4243.89 1237.81 4236.97 1236.02 4228.71 1236.02C4220 1236.02 4212.4 1238.03 4205.93 1242.05C4199.45 1245.85 4194.43 1251.32 4190.85 1258.47C4187.5 1265.39 4185.83 1273.66 4185.83 1283.26C4185.83 1293.09 4187.61 1301.68 4191.19 1309.05C4194.98 1316.2 4200.34 1321.78 4207.27 1325.8C4214.19 1329.6 4222.23 1331.5 4231.39 1331.5C4239.65 1331.5 4247.13 1330.16 4253.83 1327.48C4260.53 1324.58 4266.34 1320.33 4271.25 1314.75L4297.05 1340.54C4289.23 1349.7 4279.63 1356.62 4268.24 1361.31C4257.07 1366.01 4244.9 1368.35 4231.72 1368.35ZM4335.58 1365V1122.79H4379.46V1365H4335.58Z" fill="#545454"/>
</svg>
